<svg xmlns="http://www.w3.org/2000/svg" enable-background="new 0 0 32 32" viewBox="0 0 32 32" id="wix">
  <path fill="#FFF9DD" d="M26,32H6c-3.314,0-6-2.686-6-6V6c0-3.314,2.686-6,6-6h20c3.314,0,6,2.686,6,6v20C32,29.314,29.314,32,26,32z"></path>
  <path fill="#FFD200" d="M10.451,18.971c0.356-0.18,0.524-0.318,0.74-1.153c0.192-0.745,0.728-2.932,0.778-3.088c0.119-0.37,0.277-0.342,0.385,0c0.049,0.156,0.586,2.344,0.778,3.088c0.215,0.835,0.384,0.974,0.74,1.153c0.27,0.137,0.812,0.098,0.812,0.098l1.64-6.14c-0.611-0.076-1.245,0.221-1.383,0.873h-0.002l-0.856,3.285l-0.712-2.689c-0.192-0.793-0.52-1.202-1.211-1.202c-0.684,0-1.017,0.401-1.211,1.202l-0.712,2.689l-0.856-3.285C9.243,13.14,8.596,12.854,8,12.928l1.64,6.14C9.639,19.069,10.18,19.107,10.451,18.971z"></path>
  <path fill="#FFE777" d="M17.835 12.921L17.835 12.921c0 .001-.437-.012-.681.115-.317.164-.435.442-.435 1.21 0 0 .161-.154.399-.239C17.887 13.731 17.835 13.244 17.835 12.921zM17.403 18.983c.348-.176.428-.345.431-1.109v-3.722h-.001v-.222c0 0-.102.157-.337.286-.15.084-.294.14-.449.213-.379.18-.33.346-.33.872v3.766C16.719 19.068 17.133 19.12 17.403 18.983z"></path>
  <path fill="#FFD200" d="M24,12.948c0,0-0.878-0.148-1.313,0.244c-0.332,0.3-0.61,0.732-1.355,1.795c-0.012,0.018-0.156,0.261-0.327,0c-0.732-1.046-1.02-1.493-1.355-1.795c-0.435-0.392-1.313-0.244-1.313-0.244l2.08,3.064l-2.074,3.055c0,0,0.914,0.115,1.349-0.277c0.287-0.259,0.439-0.504,1.313-1.751c0.17-0.26,0.314-0.019,0.327,0c0.735,1.05,0.981,1.438,1.329,1.751c0.435,0.392,1.333,0.277,1.333,0.277l-2.075-3.055h0.001L24,12.948z"></path>
</svg>
